<svg xmlns="http://www.w3.org/2000/svg" xmlns:xlink="http://www.w3.org/1999/xlink" width="261" height="172" viewBox="0 0 261 172">
  <metadata><?xpacket begin="﻿" id="W5M0MpCehiHzreSzNTczkc9d"?>
<x:xmpmeta xmlns:x="adobe:ns:meta/" x:xmptk="Adobe XMP Core 5.6-c138 79.159824, 2016/09/14-01:09:01        ">
   <rdf:RDF xmlns:rdf="http://www.w3.org/1999/02/22-rdf-syntax-ns#">
      <rdf:Description rdf:about=""/>
   </rdf:RDF>
</x:xmpmeta>
                                                                                                    
                                                                                                    
                                                                                                    
                                                                                                    
                                                                                                    
                                                                                                    
                                                                                                    
                                                                                                    
                                                                                                    
                                                                                                    
                                                                                                    
                                                                                                    
                                                                                                    
                                                                                                    
                                                                                                    
                                                                                                    
                                                                                                    
                                                                                                    
                                                                                                    
                                                                                                    
                           
<?xpacket end="w"?></metadata>
<defs>
    <style>
      .cls-1 {
        fill-rule: evenodd;
        fill: url(#linear-gradient);
      }
    </style>
    <linearGradient id="linear-gradient" x1="4762" y1="596" x2="5023" y2="596" gradientUnits="userSpaceOnUse">
      <stop offset="0" stop-color="#31e787" stop-opacity="0"/>
      <stop offset="1" stop-color="#31e787"/>
    </linearGradient>
  </defs>
  <path id="我方" class="cls-1" d="M4937,682H4792a13,13,0,0,1,0-26h34a8,8,0,0,0,0-16h-42a11,11,0,0,1,0-22h43a5,5,0,0,0,0-10h-38a7,7,0,0,1,0-14h23a8,8,0,0,0,0-16h-38a12,12,0,0,1,0-24h54a10,10,0,0,0,0-20h-34a12,12,0,0,1,0-24h143A86,86,0,0,1,4937,682Z" transform="translate(-4762 -510)"/>
</svg>
