<svg xmlns="http://www.w3.org/2000/svg" xmlns:xlink="http://www.w3.org/1999/xlink" width="261" height="172" viewBox="0 0 261 172">
  <metadata><?xpacket begin="﻿" id="W5M0MpCehiHzreSzNTczkc9d"?>
<x:xmpmeta xmlns:x="adobe:ns:meta/" x:xmptk="Adobe XMP Core 5.6-c138 79.159824, 2016/09/14-01:09:01        ">
   <rdf:RDF xmlns:rdf="http://www.w3.org/1999/02/22-rdf-syntax-ns#">
      <rdf:Description rdf:about=""/>
   </rdf:RDF>
</x:xmpmeta>
                                                                                                    
                                                                                                    
                                                                                                    
                                                                                                    
                                                                                                    
                                                                                                    
                                                                                                    
                                                                                                    
                                                                                                    
                                                                                                    
                                                                                                    
                                                                                                    
                                                                                                    
                                                                                                    
                                                                                                    
                                                                                                    
                                                                                                    
                                                                                                    
                                                                                                    
                                                                                                    
                           
<?xpacket end="w"?></metadata>
<defs>
    <style>
      .cls-1 {
        fill-rule: evenodd;
        fill: url(#linear-gradient);
      }
    </style>
    <linearGradient id="linear-gradient" x1="5372" y1="1358" x2="5111" y2="1358" gradientUnits="userSpaceOnUse">
      <stop offset="0" stop-color="#ffe29f" stop-opacity="0"/>
      <stop offset="1" stop-color="#ffe29f"/>
    </linearGradient>
  </defs>
  <path id="对方" class="cls-1" d="M5197,1444h145a13,13,0,0,0,0-26h-34a8,8,0,0,1,0-16h42a11,11,0,0,0,0-22h-43a5,5,0,0,1,0-10h38a7,7,0,0,0,0-14h-23a8,8,0,0,1,0-16h38a12,12,0,0,0,0-24h-54a10,10,0,0,1,0-20h34a12,12,0,0,0,0-24H5197A86,86,0,0,0,5197,1444Z" transform="translate(-5111 -1272)"/>
</svg>
